<svg height="40" viewBox="0 0 251 40" width="251" xmlns="http://www.w3.org/2000/svg">
    <g fill="#fff">
        <path d="m3.55555556 9.63555556 6.70577774 28.34666664c.0209319.0869015.1031342.1447475.192.1351111l8.9617778-.9155555c.0639787-.006045.1197146-.0461477.1457778-.1048889l2.9191111-6.6364445 2.9084444 5.9484445c.0324774.0672212.1034932.10699.1777778.0995555l8.9066667-.7857777c.0756636-.006976.1385291-.0612689.1564444-.1351111l6.7324445-27.35111116h3.6728889c.0981839 0 .1777777-.07959382.1777777-.17777777v-7.16977778c0-.09818396-.0795938-.17777778-.1777777-.17777778l-15.3795556.26666667c-.0981839 0-.1777778.07959382-.1777778.17777778v7.25511111c0 .09818395.0795939.17777777.1777778.17777777l3.2391111-.10311111-3.8951111 15.85066667-6.2826667-13.4151111c-.0288805-.0633883-.0921203-.1040697-.1617777-.1040697-.0696575 0-.1328973.0406814-.1617778.1040697l-6.4408889 14.4248889-3.5448889-16.10133336h2.8248889c.098184 0 .1777778-.07959382.1777778-.17777777v-7.70133334c0-.09818395-.0795938-.17777777-.1777778-.17777777l-15.05422222.46044444c-.09818396 0-.17777778.07959382-.17777778.17777778v7.79911111c-.00006095.04873089.01988436.09535046.05517227.128958.03528792.03360754.08282442.05125636.1314944.04881978z"/>
        <path d="m48.8995556 34.5991111 15.1217777-.9617778c.0932934-.0065463.1655628-.0842552.1653334-.1777777v-7.216c0-.098184-.0795939-.1777778-.1777778-.1777778l-3.4097778.16.0231111-18.47644447 3.4222222-.096c.098184 0 .1777778-.07959382.1777778-.17777777v-6.76444445c0-.09818395-.0795938-.17777778-.1777778-.17777778l-15.1644444.13155556c-.098184 0-.1777778.07959382-.1777778.17777778l.032 6.93333333c0 .09818396.0795938.17777778.1777778.17777778l3.4844444-.032.032 18.74488892-3.5644444.2986666c-.0925906.0074306-.1638532.08489-.1635556.1777778l.0088889 7.2888889c.002733.0475102.0244001.0919412.060152.1233494.035752.0314083.0826039.0471715.1300703.0437617z"/>
        <path d="m68.5902222 33.3208889 8.0497778-.3235556c.098184 0 .1777778-.0795938.1777778-.1777777v-.7804445c2.4726074.6494234 5.0225601.9568772 7.5786666.9137778 4.0142223-.112 12.9777778-1.9128889 12.9777778-9.4915556 0-7.5786666-8.1422222-9.6-11.6675555-10.0924444-3.5253334-.4924445-9.3422223-.976-9.3422223-3.67644446 0-2.70044444 4.1955556-2.45688888 4.5244445-2.46044444s4.6773333.07111111 7.5306667 3.232c.0331935.0367862.0802332.0580507.1297777.0586667h7.9448889c.098184 0 .1777778-.0795939.1777778-.1777778l-.0142222-9.93066668c0-.09818395-.0795938-.17777778-.1777778-.17777778h-7.7866667c-.0981839 0-.1777777.07959383-.1777777.17777778v.94933334s-3.8666667-1.24444445-7.5146667-1.18577778c-3.648.05866666-12.8248889.97422222-12.8248889 9.52355555 0 8.54933337 8.5511111 9.80444447 14.8782222 10.60266667s6.0444445 2.9635556 6.0444445 3.1911111c0 .2275556.2862222 2.2222222-4.6737778 2.2222222-2.9447519-.0123918-5.7768394-1.1332942-7.9324445-3.1395555-.0333985-.0321929-.0780573-.0500565-.1244444-.0497778h-7.8417778c-.0981839 0-.1777778.0795938-.1777778.1777778l.0568889 10.4373333c-.0000387.048408.0196644.0947384.0545584.1282904.0348941.033552.0819613.0514237.1303305.0494874z"/>
        <path d="m101.096889 32.2168889 26.311111-.1777778c.098184 0 .177778-.0795938.177778-.1777778v-9.9093333c0-.098184-.079594-.1777778-.177778-.1777778h-7.726222c-.098184 0-.177778.0795938-.177778.1777778v2.7786667h-6.632889v-5.1235556h7.306667c.098184 0 .177778-.0795938.177778-.1777778v-6.7146666c0-.098184-.079594-.1777778-.177778-.1777778h-7.258667v-5.37955557h6.567111v3.18755557c0 .0981839.079594.1777778.177778.1777778h7.740444c.098184 0 .177778-.0795939.177778-.1777778v-9.98933334c0-.09818396-.079594-.17777778-.177778-.17777778h-26.311111c-.098184 0-.177777.07959382-.177777.17777778v6.61155555c0 .09818396.079593.17777778.177777.17777778h3.587556v17.79555551h-3.585778c-.098184 0-.177778.0795939-.177778.1777778v6.9208889c-.000002.0474593.018972.0929492.052697.1263406s.079402.0519118.126859.0514372z"/>
        <path d="m131.509333 32.0408889 15.288889.2222222c.098184 0 .177778-.0795938.177778-.1777778v-7.0186666c0-.098184-.079594-.1777778-.177778-.1777778l-3.500444-.0604445v-11.4133333l6.698666 8.944c.033676.0433919.085518.068781.140445.068781.054926 0 .106769-.0253891.140444-.068781l6.812445-8.5528889v11.3048889l-3.338667-.0391111c-.098184 0-.177778.0795938-.177778.1777778v6.9973333c0 .098184.079594.1777778.177778.1777778l15.253333.5013333c.098184 0 .177778-.0795938.177778-.1777778v-7.072c0-.0981839-.079594-.1777777-.177778-.1777777l-3.543111-.1102223v-17.95555551l3.377778.048c.098184 0 .177778-.07959382.177778-.17777778v-6.79111111c0-.09818396-.079594-.17777778-.177778-.17777778h-11.555555c-.055957 0-.108649.02634563-.142223.07111111l-6.901333 9.13777778-6.878222-9.13777778c-.033574-.04476548-.086266-.07111111-.142222-.07111111h-11.708445c-.098184 0-.177778.07959382-.177778.17777778v6.46755556c0 .09818395.079594.17777777.177778.17777777h3.576889v17.56266667l-3.575111-.0266667c-.098184 0-.177778.0795939-.177778.1777778v6.992c-.000019.096812.07743.1758416.174222.1777778z"/>
        <path d="m203.344 34.96 15.288889 1.3404444c.049561.003978.098524-.0129809.135007-.0467615.036483-.0337807.057152-.0812958.056993-.1310162v-7.4008889c.000459-.0916406-.068818-.1686148-.16-.1777778l-3.390222-.3164444v-12.48l13.596444 21.5111111c.029543.0445954.076799.0743731.129778.0817777l7.804444.9155556c.050722.0061323.10163-.009854.139741-.0438814.038111-.0340275.05974-.0828066.05937-.1338964v-28.65599998l3.294223.15466667c.098184 0 .177777-.07959382.177777-.17777778v-7.75822222c0-.09818396-.079593-.17777778-.177777-.17777778l-15.232-.33777778c-.098184 0-.177778.07959383-.177778.17777778v7.44c0 .09818396.079594.17777778.177778.17777778l3.521777.14044444v12.91022227l-13.591111-20.97777782c-.031948-.04982762-.086601-.08048638-.145777-.08177778l-11.468445-.16711111c-.098184 0-.177778.07959382-.177778.17777778v7.11111111c0 .09818395.079594.17777778.177778.17777778l3.555556.10133333v19.28355551l-3.536-.2666666c-.049562-.0039779-.098524.0129809-.135007.0467615-.036483.0337807-.057153.0812958-.056993.1310163v7.2764444c-.001791.0825018.053427.1553891.133333.176z"/>
        <path d="m250.179556 39.984-7.758223-1.0186667c-.089065-.0116743-.155428-.0879539-.154666-.1777777v-7.7546667c-.000437-.0514413.02143-.1005497.059955-.1346419.038524-.0340923.089927-.0498254.140934-.0431359l7.758222 1.0204445c.089065.0116742.155428.0879539.154666.1777777v7.7546667c-.000077.0511317-.022166.0997544-.060626.133449-.038459.0336945-.089565.0491982-.140262.042551z"/>
        <g transform="translate(172.622222 .355556)">
            <path d="m12.2755556 7.46666667 6.3431111.13688889v3.20000004c0 .0981839.0795938.1777777.1777777.1777777l7.8524445.0693334c.0981839 0 .1777778-.0795939.1777778-.1777778l.048-10.33955557c0-.09818395-.0795939-.17777777-.1777778-.17777777l-26.42844446-.26666667c-.09818395 0-.17777777.07959382-.17777777.17777778v6.79822222c0 .09818395.07959382.17777778.17777777.17777778l3.63733334.06222222z"/>
            <path d="m.25955556 32.8195556 26.58488884 1.5164444c.048969.0029435.0969777-.0144789.1326617-.048143.035684-.0336642.0558712-.0805775.0557828-.1296348v-10.448c0-.0981839-.0795938-.1777778-.1777778-.1777778l-8-.368c-.0981839 0-.1777778.0795939-.1777778.1777778v2.9351111l-6.3875555-.2506666v-5.5111111l7.024.1155555c.0981839 0 .1777778-.0795938.1777778-.1777778v-6.9333333c0-.098184-.0795939-.1777778-.1777778-.1777778l-7.0382222-.1866666v-3.136c0-.098184-.0795939-.17777782-.1777778-.17777782l-8.02133336-.14933334c-.09818395 0-.17777777.07959383-.17777777.17777778v15.85599998l-3.52888889-.1777778c-.09818396 0-.17777778.0795939-.17777778.1777778l-.10311111 6.9137778c-.0010384.0961603.07457746.1757145.17066667.1795556z"/>
        </g>
    </g>
</svg>